<svg xmlns="http://www.w3.org/2000/svg" viewBox="0 0 700 500"><defs><style>.cls-1{fill:#fff;}</style></defs><title>Asset 3</title><g id="Layer_2" data-name="Layer 2"><g id="Calque_1" data-name="Calque 1"><rect class="cls-1" x="20" y="325" width="660" height="155"/><path d="M680,0H0V500H700V0Zm0,480H20V325H680Z"/><path d="M127.84,372H133v14.57a99.88,99.88,0,0,1,12.22-1c8.91,0,16.2,2.58,16.2,20.32,0,18.69-7.07,21.2-17.15,21.2a119.73,119.73,0,0,1-16.42-1Zm5.15,18.1v32.54h11.56c8.69,0,11.34-4,11.34-14.8v-3.75c0-8.54-2.06-14-11.71-14Z"/><path d="M178,442.26l5.89-16h-2.06l-15.68-39.75h5.45l13.47,34.74h.59l13.1-34.74h5.08l-20.61,55.72Z"/><path d="M267,426.07a121.39,121.39,0,0,1-16.41,1c-10.38,0-17.15-1.55-17.15-20.25,0-17.74,7.14-21.27,16.19-21.27a106.76,106.76,0,0,1,12.3,1V372H267Zm-16.34-35.93c-9.64,0-11.7,5.82-11.7,14.36v3.68c0,10.82,2.72,14.5,11.34,14.5h11.63V390.14Z"/><path d="M309.66,401.63v2.79c0,2.21-1.18,3.91-3.68,3.91H281.61v2c0,8.1,2.58,12.52,12.15,12.52h12.95v3.24a93.32,93.32,0,0,1-13.47,1c-13.47,0-17-6.33-17-20.1s3.83-21.42,17.37-21.42C305,385.58,309.66,391.4,309.66,401.63ZM281.61,404h23v-2.35c0-5.74-1.33-11.63-9.57-11.63h-2.28c-8.91,0-11.12,5.81-11.12,12.36Z"/><path d="M333.73,419.74l13-33.13H352l-16,39.68h-5.08l-16.78-39.68h5.37l13.84,33.13Z"/><path d="M374.29,385.58h1.4c10.6,0,17,4.64,17,20.76s-6.62,20.76-17,20.76h-1.4c-11,0-17.15-4-17.15-20.39S363.54,385.58,374.29,385.58Zm12.88,19.51c0-9.42-1.69-15.09-11.41-15.09h-1.69c-9.64,0-11.41,5.67-11.41,15.09v2.65c0,9.42,1.69,15.09,11.19,15.09H376c9.13,0,11.19-5.89,11.19-14.21Z"/><path d="M411,415.69c0,5.74,2,7.21,6.92,7.21h9.2v3.24a59.51,59.51,0,0,1-10.3,1.1c-9,0-10.82-4.19-10.82-11.41V390.37h-7.81V387.2l8-.81,1.91-10.82h2.94v11h13.55v3.83H411Z"/><path d="M466.23,401.63v2.79c0,2.21-1.18,3.91-3.68,3.91H438.18v2c0,8.1,2.58,12.52,12.15,12.52h12.95v3.24a93.32,93.32,0,0,1-13.47,1c-13.47,0-17-6.33-17-20.1s3.83-21.42,17.37-21.42C461.52,385.58,466.23,391.4,466.23,401.63ZM438.18,404h23v-2.35c0-5.74-1.33-11.63-9.57-11.63H449.3c-8.91,0-11.12,5.81-11.12,12.36Z"/><path d="M507.3,425.7a133.37,133.37,0,0,1-19.06,1.47c-9.13,0-15.68-.88-15.68-11.85,0-10.53,6.18-13.32,14.43-13.32a117.39,117.39,0,0,1,15.31,1.1v-3.68c0-6.63-2.72-9.42-9.64-9.42H479v-3.54a95.89,95.89,0,0,1,13-.88c8.9,0,15.31,2.21,15.31,13.47Zm-20.39-19.07c-5.22,0-8.83,1.7-8.83,7.44v1.54c0,4.86,2.43,7,8.1,7H502.3v-16Z"/><path d="M542.56,426.29V400.82c0-7.88-1.62-10.68-8.9-10.68h-11v36.15h-5.16V387a103.32,103.32,0,0,1,15.24-1.4c3.24,0,6.7.07,9.42,1.33A82,82,0,0,1,556,385.43c6,0,16.12.22,16.12,13.55v27.31H567v-25.4c0-8-3-10.67-11-10.67h-10.3c1.25,1.76,2,4.41,2,8.61v27.46Z"/><path class="cls-1" d="M199.81,140.39V126.23h14.24v90.2H199.81V200.65c-3.69,8.09-14.32,18-30.73,18-24.06,0-41.56-18.88-41.56-47.21,0-28.78,19.06-47.21,43.34-47.21C186.82,124.21,197.17,133.65,199.81,140.39ZM142,171c0,21.13,12.36,34.62,29.23,34.62,18.21,0,28.77-15.29,28.77-34.17,0-18.66-10.34-34.17-28.55-34.17C153.86,137.25,142,151.41,142,171Z"/><path class="cls-1" d="M235.92,126.23l27.43,69.46,27.43-69.46h14.16L252.78,257H238.62l17.76-43.94-35.52-86.87Z"/><path class="cls-1" d="M314,126.23l22.93,61.86,25.63-59.75H365l25.41,59.75,22.93-61.86h14.61l-35.07,91.25h-2.25l-27-62-27.2,62H334l-34.85-91.25Z"/><path class="cls-1" d="M496.78,140.39V126.23H511v90.2H496.78V200.65a34.27,34.27,0,0,1-30.82,18c-24.06,0-41.6-18.88-41.6-47.21,0-28.78,19.12-47.21,43.4-47.21C483.73,124.21,493.62,133.65,496.78,140.39Zm-58,30.58c0,21.13,12.37,34.62,29.23,34.62,18.21,0,28.78-15.29,28.78-34.17,0-18.66-10.35-34.17-28.56-34.17C450.65,137.25,438.73,151.41,438.73,171Z"/><path class="cls-1" d="M532.76,126.23l27.43,69.46,27.43-69.46h14.16L549.62,257H535.46l17.76-43.94L517.7,126.23Z"/><path class="cls-1" d="M117,126.23V226.5c0,21.13-8.41,32.37-27.07,32.37a27.84,27.84,0,0,1-6.16-.9V246H88c10.79,0,14.79-5.08,14.79-19V126.23Zm3.34-35.52A10.34,10.34,0,1,1,110,80.37,10.37,10.37,0,0,1,120.33,90.71Z"/><path class="cls-1" d="M616.23,208.06a10.74,10.74,0,0,1-10.79,10.57,10.6,10.6,0,0,1-10.79-10.57,10.84,10.84,0,0,1,10.79-11A11,11,0,0,1,616.23,208.06Z"/></g></g></svg>